<?xml version="1.0" encoding="UTF-8"?>
<svg width="1174px" height="300px" viewBox="0 0 1174 300" version="1.1" xmlns="http://www.w3.org/2000/svg" xmlns:xlink="http://www.w3.org/1999/xlink">
    <!-- Generator: Sketch 52.6 (67491) - http://www.bohemiancoding.com/sketch -->
    <title>Artboard</title>
    <desc>Created with Sketch.</desc>
    <g id="Artboard" stroke="none" stroke-width="1" fill="none" fill-rule="evenodd">
        <g id="mighty_networks" transform="translate(4.000000, 4.000000)" fill="#000000">
            <path d="M540.332114,26.0345038 L574.164,26.0345038 L597.504,92.1870229 L597.770743,92.1870229 L621.288571,26.0345038 L654.987086,26.0345038 L654.987086,127.418015 L632.625143,127.418015 L632.625143,49.6699237 L632.3584,49.6699237 L605.684114,127.418015 L588.657029,127.418015 L563.005257,49.6699237 L562.738514,49.6699237 L562.738514,127.418015 L540.332114,127.418015 L540.332114,26.0345038 Z M667.479543,57.6224427 L688.9968,57.6224427 L688.9968,127.195878 L667.524,127.195878 L667.524,57.6224427 L667.479543,57.6224427 Z M665.745714,35.7196947 C665.693735,32.3884633 667.030458,29.1856876 669.435657,26.878626 C671.770146,24.5454561 674.936536,23.2346749 678.238171,23.2346749 C681.539806,23.2346749 684.706196,24.5454561 687.040686,26.878626 C689.418153,29.1827091 690.737382,32.366039 690.686171,35.6752672 C690.737382,38.9844954 689.418153,42.1678252 687.040686,44.4719084 C684.706196,46.8050782 681.539806,48.1158594 678.238171,48.1158594 C674.936536,48.1158594 671.770146,46.8050782 669.435657,44.4719084 C667.05819,42.1678252 665.738961,38.9844954 665.790171,35.6752672 L665.745714,35.7196947 Z M774.754629,121.33145 C774.754629,134.511603 771.435162,144.507786 764.796229,151.32 C758.157295,158.132214 748.050705,161.538321 734.476457,161.538321 C728.296783,161.539878 722.136964,160.839349 716.115657,159.450229 C710.035618,158.038142 704.352389,155.274352 699.488686,151.364427 L711.4032,133.593435 C714.594187,136.261506 718.140091,138.474349 721.939543,140.168702 C725.754322,141.821408 729.874257,142.653927 734.031886,142.612214 C740.611543,142.612214 745.457371,141.012824 748.569371,137.814046 C751.681371,134.615267 753.237371,130.527939 753.237371,125.552061 L753.237371,118.887939 L752.970629,118.887939 C750.651839,122.111694 747.436303,124.583533 743.723543,125.996336 C740.410554,127.314571 736.885969,128.022028 733.320571,128.084427 C728.506205,128.14692 723.728505,127.240367 719.272114,125.418779 C715.183379,123.722386 711.501293,121.178445 708.469029,117.954962 C705.411947,114.671101 703.052673,110.802056 701.533714,106.581527 C699.862411,101.937694 699.034366,97.0329204 699.088571,92.0981679 C699.088499,87.5197573 699.839407,82.9722941 701.311429,78.6366412 C702.698867,74.42267 704.8376,70.4942404 707.624343,67.0410687 C710.356624,63.6946716 713.74571,60.9428772 717.582743,58.9552672 C721.494971,56.9116031 725.940686,55.889771 730.919886,55.889771 C736.205836,55.832201 741.425641,57.0676457 746.124229,59.4883969 C747.982999,60.4387866 749.715466,61.6178691 751.281257,62.9981679 C752.563216,64.1218444 753.711806,65.3889235 754.704457,66.7745038 L754.9712,66.7745038 L754.9712,57.6224427 L774.754629,57.6224427 L774.754629,121.33145 Z M720.561371,91.9648855 C720.544464,96.4470232 722.3212,100.749933 725.496114,103.915878 C727.06853,105.482669 728.904413,106.760915 730.919886,107.692214 C735.236752,109.606414 740.162448,109.606414 744.479314,107.692214 C746.529671,106.77586 748.397288,105.496493 749.992,103.915878 C753.168337,100.74873 754.953381,96.4489107 754.953381,91.9648855 C754.953381,87.4808603 753.168337,83.1810406 749.992,80.0138931 C748.397288,78.4332781 746.529671,77.1539106 744.479314,76.2375573 C740.162448,74.3233571 735.236752,74.3233571 730.919886,76.2375573 C728.904413,77.1688561 727.06853,78.4471017 725.496114,80.0138931 C722.3212,83.1798382 720.544464,87.4827478 720.561371,91.9648855 Z M922.441257,74.7714504 L895.189029,74.7714504 L895.189029,97.9625954 C895.172677,99.7138404 895.261752,101.464483 895.455771,103.205038 C895.600594,104.641398 896.039435,106.032654 896.745029,107.292366 C897.457973,108.484209 898.532489,109.417946 899.812571,109.958015 C901.205562,110.58 903.043124,110.890992 905.325257,110.890992 C906.842644,110.86515 908.357022,110.746454 909.859886,110.535573 C911.727086,110.298626 913.134895,109.750687 914.083314,108.891756 L914.083314,126.796031 C911.670735,127.665687 909.163739,128.24728 906.614514,128.528702 C904.090612,128.816986 901.552666,128.965305 899.012343,128.972977 C895.628532,129.000726 892.254134,128.61278 888.965029,127.817863 C886.071561,127.137045 883.338448,125.899665 880.918286,124.174809 C878.606322,122.48226 876.756659,120.236648 875.538971,117.643969 C874.234895,114.978321 873.582857,111.735115 873.582857,107.914351 L873.582857,74.7714504 L859.934514,74.7714504 L859.934514,57.6224427 L873.671771,57.6224427 L873.671771,36.9636641 L895.189029,36.9636641 L895.189029,57.6224427 L938.223543,57.6224427 L956.139771,103.604885 L956.406514,103.604885 L971.744229,57.6224427 L993.794971,57.6224427 L962.274857,138.524885 C960.852229,142.256794 959.474057,145.544427 958.140343,148.387786 C956.919727,151.097577 955.200536,153.554078 953.072229,155.629466 C950.839289,157.69011 948.162191,159.210173 945.247771,160.072214 C942.106133,161.079237 937.9568,161.582748 932.799771,161.582748 C927.345838,161.597003 921.925726,160.726763 916.750743,159.005954 L919.596,141.412672 C922.757913,142.82126 926.181457,143.547899 929.643314,143.545191 C931.629802,143.596956 933.611568,143.326896 935.511657,142.745496 C936.932179,142.275825 938.225266,141.485288 939.290514,140.435267 C940.326595,139.375273 941.169158,138.142343 941.780114,136.792214 C942.46179,135.370534 943.173105,133.697099 943.914057,131.771908 L945.470057,127.773435 L922.485714,74.7714504 L922.441257,74.7714504 Z M808.719886,18.9261069 L808.719886,67.0410687 L808.986629,67.0410687 C809.551146,65.5705277 810.379803,64.2154487 811.431771,63.0425954 C812.629312,61.650315 814.02187,60.4382513 815.566286,59.4439695 C817.348627,58.3225055 819.278916,57.4552029 821.301257,56.8671756 C823.623411,56.1746286 826.035547,55.8302676 828.458857,55.8453435 C833.912267,55.8453435 838.313524,56.6746565 841.662629,58.3332824 C844.865906,59.8700167 847.575904,62.2704579 849.487086,65.2639695 C851.429517,68.4580848 852.714247,72.0076155 853.265943,75.7044275 C853.963863,80.008094 854.305858,84.3618989 854.288457,88.7216794 L854.288457,127.107023 L832.7712,127.107023 L832.7712,93.12 C832.7712,91.1059542 832.697105,89.0326718 832.548914,86.9001527 C832.431629,84.8607917 831.996644,82.8522062 831.259657,80.9468702 C830.59022,79.193179 829.452345,77.6565359 827.969829,76.5041221 C826.487924,75.3490076 824.3688,74.7714504 821.612457,74.7714504 C818.856114,74.7714504 816.603619,75.2749618 814.854971,76.2819847 C813.189276,77.2206744 811.818933,78.6054897 810.898286,80.280458 C809.968064,82.0379024 809.365494,83.9497853 809.12,85.9227481 C808.823525,88.1019693 808.674995,90.298746 808.675429,92.4980153 L808.675429,127.15145 L787.202629,127.15145 L787.202629,18.9261069 L808.719886,18.9261069 Z M540.332114,173.800305 L570.696343,173.800305 L613.819771,244.26229 L614.086514,244.26229 L614.086514,173.800305 L636.448457,173.800305 L636.448457,275.183817 L607.284571,275.183817 L563.005257,202.98916 L562.738514,202.98916 L562.738514,275.183817 L540.332114,275.183817 L540.332114,173.800305 Z M712.247886,263.143969 C708.800321,267.545289 704.328612,271.037911 699.221943,273.317863 C694.10657,275.678873 688.540774,276.906471 682.906171,276.916489 C677.755406,276.950806 672.638822,276.078559 667.790743,274.339695 C663.23676,272.722489 659.05052,270.215442 655.476114,266.964733 C651.971354,263.735698 649.171395,259.818372 647.251543,255.458015 C643.238051,245.833345 643.238051,235.005281 647.251543,225.380611 C649.171395,221.020254 651.971354,217.102928 655.476114,213.873893 C659.05052,210.623184 663.23676,208.116137 667.790743,206.498931 C672.638822,204.760067 677.755406,203.88782 682.906171,203.922137 C687.553743,203.857071 692.16633,204.733633 696.4656,206.498931 C700.419601,208.142334 703.946902,210.664494 706.779657,213.873893 C709.699959,217.238506 711.921454,221.149958 713.314857,225.380611 C714.904562,230.225477 715.685589,235.298761 715.626629,240.397099 L715.626629,247.150076 L665.701257,247.150076 C666.560762,251.267023 668.427962,254.539847 671.302857,256.96855 C674.177752,259.397252 677.719505,260.611603 681.928114,260.611603 C685.455048,260.611603 688.433676,259.826718 690.864,258.256947 C693.343129,256.622304 695.498476,254.543707 697.221371,252.125954 L712.247886,263.143969 Z M779.2448,222.759389 L754.304343,222.759389 L754.304343,245.950534 C754.287992,247.701779 754.377067,249.452422 754.571086,251.192977 C754.715908,252.629337 755.154749,254.020592 755.860343,255.280305 C756.573288,256.472147 757.647803,257.405885 758.927886,257.945954 C760.320876,258.567939 762.158438,258.878931 764.440571,258.878931 C765.957958,258.853089 767.472336,258.734393 768.9752,258.523511 C770.8424,258.286565 772.25021,257.738626 773.198629,256.879695 L773.198629,274.783969 C770.78605,275.653626 768.279053,276.235219 765.729829,276.516641 C763.205927,276.804925 760.66798,276.953244 758.127657,276.960916 C754.743846,276.988665 751.369448,276.600719 748.080343,275.805802 C745.186875,275.124984 742.453762,273.887604 740.0336,272.162748 C737.721636,270.470199 735.871974,268.224587 734.654286,265.631908 C733.35021,262.96626 732.698171,259.723053 732.698171,255.90229 L732.698171,222.759389 L719.049829,222.759389 L719.049829,205.565954 L732.787086,205.565954 L732.787086,184.951603 L754.304343,184.951603 L754.304343,205.565954 L795.916229,205.565954 L810.098057,249.238168 L810.3648,249.238168 L822.279314,205.565954 L845.797143,205.565954 L858.689714,249.238168 L858.956457,249.238168 L871.9824,205.565954 L893.7664,205.565954 L869.003771,275.183817 L847.797714,275.183817 L833.304686,228.934809 L833.037943,228.934809 L820.145371,275.183817 L798.494743,275.183817 L779.289257,222.759389 L779.2448,222.759389 Z M694.064914,232.489008 L665.701257,232.489008 C665.790154,230.784772 666.19727,229.112192 666.9016,227.557557 C667.622646,225.992122 668.650623,224.58715 669.924686,223.425802 C671.296465,222.182249 672.876573,221.189702 674.592686,220.493588 C676.598382,219.690067 678.745131,219.297262 680.9056,219.338473 C684.817829,219.338473 688.018743,220.62687 690.508343,223.203664 C692.961709,225.673333 694.267731,229.057058 694.109371,232.533435 L694.064914,232.489008 Z M891.943657,240.352672 C891.876428,235.189768 892.906841,230.071429 894.966743,225.336183 C896.886595,220.975827 899.686554,217.0585 903.191314,213.829466 C906.76572,210.578757 910.95196,208.071709 915.505943,206.454504 C925.289924,203.02037 935.952819,203.02037 945.7368,206.454504 C950.290783,208.071709 954.477022,210.578757 958.051429,213.829466 C961.556189,217.0585 964.356148,220.975827 966.276,225.336183 C970.289492,234.960854 970.289492,245.788917 966.276,255.413588 C964.356148,259.773944 961.556189,263.691271 958.051429,266.920305 C954.477022,270.171014 950.290783,272.678062 945.7368,274.295267 C935.952819,277.729401 925.289924,277.729401 915.505943,274.295267 C910.95196,272.678062 906.76572,270.171014 903.191314,266.920305 C899.686554,263.691271 896.886595,259.773944 894.966743,255.413588 C892.906841,250.678342 891.876428,245.560003 891.943657,240.397099 L891.943657,240.352672 Z M913.460914,240.352672 C913.460914,245.595115 914.972457,249.845344 917.995543,253.103359 C921.018629,256.361374 925.242057,257.990382 930.665829,257.990382 C936.119238,257.990382 940.342667,256.361374 943.336114,253.103359 C946.329562,249.845344 947.841105,245.595115 947.870743,240.352672 C947.870743,235.110229 946.3592,230.86 943.336114,227.601985 C940.313029,224.343969 936.0896,222.714962 930.665829,222.714962 C925.212419,222.714962 920.98899,224.343969 917.995543,227.601985 C915.002095,230.86 913.490552,235.110229 913.460914,240.352672 Z M979.124114,205.565954 L1000.64137,205.565954 L1000.64137,216.717252 L1000.90811,216.717252 C1003.19025,212.422595 1005.91695,209.194198 1009.08823,207.032061 C1012.2595,204.869924 1016.23101,203.788855 1021.00274,203.788855 C1022.24754,203.788855 1023.49234,203.833282 1024.73714,203.922137 C1025.89384,204.006706 1027.03998,204.200081 1028.16034,204.499695 L1028.16034,224.136641 C1026.67631,223.673128 1025.16086,223.31679 1023.62571,223.070382 C1022.08171,222.827473 1020.52072,222.708619 1018.95771,222.714962 C1014.83802,222.714962 1011.59265,223.292519 1009.2216,224.447634 C1006.96065,225.484134 1005.04666,227.150044 1003.70891,229.245802 C1002.35704,231.49616 1001.50778,234.011904 1001.21931,236.620763 C1000.81837,239.758956 1000.6253,242.920189 1000.64137,246.083817 L1000.64137,275.139389 L979.124114,275.139389 L979.124114,205.565954 Z M1034.65109,166.914046 L1056.16834,166.914046 L1056.16834,233.066565 L1079.95291,205.565954 L1106.316,205.565954 L1078.66366,236.931756 L1107.02731,275.183817 L1079.90846,275.183817 L1056.39063,239.952824 L1056.12389,239.952824 L1056.12389,275.183817 L1034.60663,275.183817 L1034.60663,166.914046 L1034.65109,166.914046 Z M1150.90651,226.047023 C1147.76488,222.137405 1143.61554,220.182595 1138.45851,220.182595 C1136.61836,220.191663 1134.80613,220.633006 1133.16811,221.470992 C1131.4491,222.329924 1130.5896,223.81084 1130.5896,225.91374 C1130.5896,228.016641 1131.47874,229.27542 1133.25703,229.690076 C1135.43171,230.627056 1137.69576,231.341541 1140.01451,231.822595 L1148.77257,233.821832 C1151.8386,234.522588 1154.78805,235.659689 1157.53063,237.198321 C1160.24528,238.706111 1162.56166,240.838191 1164.28811,243.418168 C1166.0664,246.054198 1166.95554,249.563969 1166.95554,253.947481 C1166.95554,258.330992 1165.97749,262.033282 1164.02137,265.054351 C1162.09178,267.941587 1159.52042,270.343976 1156.50811,272.073893 C1153.30762,273.895272 1149.81952,275.157365 1146.19406,275.805802 C1142.45645,276.511653 1138.66125,276.86861 1134.85749,276.872061 C1129.86533,276.851485 1124.89942,276.148949 1120.09771,274.783969 C1115.30138,273.506592 1110.93922,270.958581 1107.47189,267.409008 L1120.49783,252.925649 C1122.31387,255.239774 1124.58293,257.159629 1127.1664,258.567939 C1129.80669,259.913343 1132.7391,260.584906 1135.70217,260.522748 C1137.99935,260.559478 1140.28556,260.198737 1142.45966,259.456489 C1144.47505,258.745649 1145.48274,257.427634 1145.48274,255.502443 C1145.48274,253.577252 1144.5936,252.214809 1142.81531,251.415115 C1140.66655,250.370028 1138.39689,249.594081 1136.05783,249.104885 L1127.29977,247.105649 C1124.2522,246.408147 1121.30821,245.317956 1118.54171,243.862443 C1115.81176,242.435358 1113.48722,240.341611 1111.78423,237.775878 C1110.00594,235.139847 1109.1168,231.630076 1109.1168,227.246565 C1109.1168,222.863053 1109.94667,219.323664 1111.6064,216.628397 C1113.22365,213.73629 1115.47264,211.245827 1118.18606,209.34229 C1121.03126,207.379251 1124.2097,205.949155 1127.56651,205.121679 C1131.08025,204.210988 1134.69516,203.748229 1138.32514,203.744427 C1143.03417,203.75812 1147.71806,204.431074 1152.24023,205.743664 C1156.79202,206.993146 1160.91326,209.467314 1164.15474,212.896489 L1150.95097,225.91374 L1150.90651,226.047023 Z" id="Shape"></path>
            <path d="M112.032,94.6305344 C103.683979,94.6305344 96.9165714,87.8676417 96.9165714,79.5251908 C96.9165714,71.18274 103.683979,64.4198473 112.032,64.4198473 C120.380021,64.4198473 127.147429,71.18274 127.147429,79.5251908 C127.147429,87.8676417 120.380021,94.6305344 112.032,94.6305344 Z M37.344,77.3038168 C32.0536,77.3038168 27.5634286,72.8166412 27.5634286,67.0854962 C27.6352196,61.7174375 31.9723574,57.3831935 37.344,57.3114504 C43.0789714,57.3114504 47.5691429,61.798626 47.5691429,67.0854962 C47.6053715,69.8065007 46.5397204,72.4266591 44.6142246,74.3508701 C42.6887289,76.2750811 40.0668212,77.3400212 37.344,77.3038168 Z M382.331429,74.1938931 C387.621829,74.1938931 392.112,78.6810687 392.112,84.4122137 C392.040209,89.7802724 387.703071,94.1145165 382.331429,94.1862595 C376.596457,94.1862595 372.106286,89.699084 372.106286,84.4122137 C372.070057,81.6912092 373.135708,79.0710509 375.061204,77.1468398 C376.9867,75.2226288 379.608607,74.1576887 382.331429,74.1938931 Z M113.365714,137.725191 C108.075314,137.725191 103.585143,133.238015 103.585143,127.50687 C103.656934,122.138812 107.994072,117.804568 113.365714,117.732824 C119.100686,117.732824 123.590857,122.22 123.590857,127.50687 C123.627086,130.227875 122.561435,132.848033 120.635939,134.772244 C118.710443,136.696455 116.088535,137.761395 113.365714,137.725191 Z M60.0171429,191.038168 C54.7267429,191.038168 50.2365714,186.550992 50.2365714,180.819847 C50.3083624,175.451789 54.6455002,171.117545 60.0171429,171.045802 C65.7521143,171.045802 70.2422857,175.532977 70.2422857,180.819847 C70.2785143,183.540852 69.2128632,186.16101 67.2873675,188.085221 C65.3618717,190.009432 62.739964,191.074372 60.0171429,191.038168 Z M13.7817143,222.581679 C8.49131429,222.581679 4.00114286,218.094504 4.00114286,212.363359 C4.07293385,206.9953 8.41007165,202.661056 13.7817143,202.589313 C19.5166857,202.589313 24.0068571,207.076489 24.0068571,212.363359 C24.0430858,215.084363 22.9774347,217.704522 21.0519389,219.628733 C19.1264432,221.552944 16.5045355,222.617884 13.7817143,222.581679 Z M9.78057143,290.555725 C4.49017143,290.555725 0,286.06855 0,280.337405 C0.0717909891,274.969346 4.4089288,270.635102 9.78057143,270.563359 C15.5155429,270.563359 20.0057143,275.050534 20.0057143,280.337405 C20.0419429,283.058409 18.9762918,285.678567 17.0507961,287.602778 C15.1253003,289.52699 12.5033926,290.59193 9.78057143,290.555725 Z M189.832,159.050382 C184.5416,159.050382 180.051429,154.563206 180.051429,148.832061 C180.12322,143.464002 184.460357,139.129758 189.832,139.058015 C195.566971,139.058015 200.057143,143.545191 200.057143,148.832061 C200.093371,151.553066 199.02772,154.173224 197.102225,156.097435 C195.176729,158.021646 192.554821,159.086586 189.832,159.050382 Z M172.049143,171.045802 C166.758743,171.045802 162.268571,166.558626 162.268571,160.827481 C162.340362,155.459422 166.6775,151.125178 172.049143,151.053435 C177.784114,151.053435 182.274286,155.540611 182.274286,160.827481 C182.310514,163.548485 181.244863,166.168644 179.319367,168.092855 C177.393872,170.017066 174.771964,171.082006 172.049143,171.045802 Z M197.834286,195.480916 C192.543886,195.480916 188.053714,190.99374 188.053714,185.262595 C188.125505,179.894537 192.462643,175.560293 197.834286,175.48855 C203.569257,175.48855 208.059429,179.975725 208.059429,185.262595 C208.095657,187.9836 207.030006,190.603758 205.10451,192.527969 C203.179015,194.45218 200.557107,195.51712 197.834286,195.480916 Z M94.6937143,125.729771 C89.4033143,125.729771 84.9131429,121.242595 84.9131429,115.51145 C84.9849338,110.143392 89.3220717,105.809148 94.6937143,105.737405 C100.428686,105.737405 104.918857,110.22458 104.918857,115.51145 C104.955086,118.232455 103.889435,120.852613 101.963939,122.776824 C100.038443,124.701035 97.4165355,125.765975 94.6937143,125.729771 Z M22.2285714,189.705344 C16.9381714,189.705344 12.448,185.218168 12.448,179.487023 C12.519791,174.118964 16.8569288,169.78472 22.2285714,169.712977 C27.9635429,169.712977 32.4537143,174.200153 32.4537143,179.487023 C32.4899429,182.208027 31.4242918,184.828186 29.4987961,186.752397 C27.5733003,188.676608 24.9513926,189.741548 22.2285714,189.705344 Z M359.213714,191.482443 C364.504114,191.482443 368.994286,195.969618 368.994286,201.700763 C368.922495,207.068822 364.585357,211.403066 359.213714,211.474809 C353.478743,211.474809 348.988571,206.987634 348.988571,201.700763 C348.952343,198.979759 350.017994,196.3596 351.94349,194.435389 C353.868985,192.511178 356.490893,191.446238 359.213714,191.482443 Z M230.732571,98.6290076 C236.022971,98.6290076 240.513143,103.116183 240.513143,108.847328 C240.441352,114.215387 236.104214,118.549631 230.732571,118.621374 C224.9976,118.621374 220.507429,114.134198 220.507429,108.847328 C220.4712,106.126324 221.536851,103.506165 223.462347,101.581954 C225.387843,99.6577433 228.00975,98.5928032 230.732571,98.6290076 Z M254.294857,124.396947 C259.585257,124.396947 264.075429,128.884122 264.075429,134.615267 C264.003638,139.983326 259.6665,144.31757 254.294857,144.389313 C248.559886,144.389313 244.069714,139.902137 244.069714,134.615267 C244.033486,131.894263 245.099137,129.274104 247.024633,127.349893 C248.950128,125.425682 251.572036,124.360742 254.294857,124.396947 Z M252.072,84.8564885 C257.3624,84.8564885 261.852571,89.3436641 261.852571,95.0748092 C261.78078,100.442868 257.443643,104.777112 252.072,104.848855 C246.337029,104.848855 241.846857,100.361679 241.846857,95.0748092 C241.810629,92.3538047 242.87628,89.7336463 244.801775,87.8094352 C246.727271,85.8852242 249.349179,84.8202841 252.072,84.8564885 Z M62.6845714,154.607634 C57.3941714,154.607634 52.904,150.120458 52.904,144.389313 C52.975791,139.021254 57.3129288,134.68701 62.6845714,134.615267 C68.4195429,134.615267 72.9097143,139.102443 72.9097143,144.389313 C72.9459429,147.110317 71.8802918,149.730476 69.9547961,151.654687 C68.0293003,153.578898 65.4073926,154.643838 62.6845714,154.607634 Z M385.888,128.839695 C391.1784,128.839695 395.668571,133.32687 395.668571,139.058015 C395.59678,144.426074 391.259643,148.760318 385.888,148.832061 C380.153029,148.832061 375.662857,144.344885 375.662857,139.058015 C375.626629,136.337011 376.69228,133.716852 378.617775,131.792641 C380.543271,129.86843 383.165179,128.80349 385.888,128.839695 Z M341.430857,204.810687 C346.721257,204.810687 351.211429,209.297863 351.211429,215.029008 C351.139638,220.397066 346.8025,224.73131 341.430857,224.803053 C335.695886,224.803053 331.205714,220.315878 331.205714,215.029008 C331.169486,212.308003 332.235137,209.687845 334.160633,207.763634 C336.086128,205.839423 338.708036,204.774483 341.430857,204.810687 Z M338.318857,249.682443 C343.609257,249.682443 348.099429,254.169618 348.099429,259.900763 C348.027638,265.268822 343.6905,269.603066 338.318857,269.674809 C332.583886,269.674809 328.093714,265.187634 328.093714,259.900763 C328.057486,257.179759 329.123137,254.5596 331.048633,252.635389 C332.974128,250.711178 335.596036,249.646238 338.318857,249.682443 Z M288.971429,221.248855 C294.261829,221.248855 298.752,225.736031 298.752,231.467176 C298.680209,236.835234 294.343071,241.169478 288.971429,241.241221 C283.236457,241.241221 278.746286,236.754046 278.746286,231.467176 C278.710057,228.746171 279.775708,226.126013 281.701204,224.201802 C283.6267,222.277591 286.248607,221.212651 288.971429,221.248855 Z M339.652571,113.290076 C344.942971,113.290076 349.433143,117.777252 349.433143,123.508397 C349.361352,128.876456 345.024214,133.2107 339.652571,133.282443 C333.9176,133.282443 329.427429,128.795267 329.427429,123.508397 C329.3912,120.787392 330.456851,118.167234 332.382347,116.243023 C334.307843,114.318812 336.92975,113.253872 339.652571,113.290076 Z M47.1245714,58.2 C44.6692712,58.2 42.6788571,56.2109139 42.6788571,53.7572519 C42.6788571,51.3035899 44.6692712,49.3145038 47.1245714,49.3145038 C49.5798716,49.3145038 51.5702857,51.3035899 51.5702857,53.7572519 C51.5702857,56.2109139 49.5798716,58.2 47.1245714,58.2 Z M20.0057143,8.88549618 C17.5504141,8.88549618 15.56,6.89641011 15.56,4.44274809 C15.56,1.98908607 17.5504141,4.50730401e-16 20.0057143,0 C22.4610145,-4.50730401e-16 24.4514286,1.98908607 24.4514286,4.44274809 C24.4514286,6.89641011 22.4610145,8.88549618 20.0057143,8.88549618 Z M360.992,38.2076336 C363.4473,38.2076336 365.437714,40.1967197 365.437714,42.6503817 C365.437714,45.1040437 363.4473,47.0931298 360.992,47.0931298 C358.5367,47.0931298 356.546286,45.1040437 356.546286,42.6503817 C356.546286,40.1967197 358.5367,38.2076336 360.992,38.2076336 Z M384.554286,42.2061069 C387.009586,42.2061069 389,44.1951929 389,46.648855 C389,49.102517 387.009586,51.0916031 384.554286,51.0916031 C382.098986,51.0916031 380.108571,49.102517 380.108571,46.648855 C380.108571,44.1951929 382.098986,42.2061069 384.554286,42.2061069 Z M371.217143,40.4290076 C373.672443,40.4290076 375.662857,42.4180937 375.662857,44.8717557 C375.662857,47.3254177 373.672443,49.3145038 371.217143,49.3145038 C368.761843,49.3145038 366.771429,47.3254177 366.771429,44.8717557 C366.771429,42.4180937 368.761843,40.4290076 371.217143,40.4290076 Z M365.882286,92.8534351 C368.337586,92.8534351 370.328,94.8425212 370.328,97.2961832 C370.328,99.7498452 368.337586,101.738931 365.882286,101.738931 C363.426986,101.738931 361.436571,99.7498452 361.436571,97.2961832 C361.436571,94.8425212 363.426986,92.8534351 365.882286,92.8534351 Z M353.878857,95.0748092 C356.334157,95.0748092 358.324571,97.0638952 358.324571,99.5175573 C358.324571,101.971219 356.334157,103.960305 353.878857,103.960305 C351.423557,103.960305 349.433143,101.971219 349.433143,99.5175573 C349.433143,97.0638952 351.423557,95.0748092 353.878857,95.0748092 Z M343.209143,91.0763359 C345.664443,91.0763359 347.654857,93.065422 347.654857,95.519084 C347.654857,97.972746 345.664443,99.9618321 343.209143,99.9618321 C340.753843,99.9618321 338.763429,97.972746 338.763429,95.519084 C338.763429,93.065422 340.753843,91.0763359 343.209143,91.0763359 Z M350.322286,130.172519 C352.777586,130.172519 354.768,132.161605 354.768,134.615267 C354.768,137.068929 352.777586,139.058015 350.322286,139.058015 C347.866986,139.058015 345.876571,137.068929 345.876571,134.615267 C345.876571,132.161605 347.866986,130.172519 350.322286,130.172519 Z M222.730286,202.145038 C225.185586,202.145038 227.176,204.134124 227.176,206.587786 C227.176,209.041448 225.185586,211.030534 222.730286,211.030534 C220.274986,211.030534 218.284571,209.041448 218.284571,206.587786 C218.284571,204.134124 220.274986,202.145038 222.730286,202.145038 Z M253.850286,188.816794 C256.305586,188.816794 258.296,190.80588 258.296,193.259542 C258.296,195.713204 256.305586,197.70229 253.850286,197.70229 C251.394986,197.70229 249.404571,195.713204 249.404571,193.259542 C249.404571,190.80588 251.394986,188.816794 253.850286,188.816794 Z M271.188571,170.157252 C273.643872,170.157252 275.634286,172.146338 275.634286,174.6 C275.634286,177.053662 273.643872,179.042748 271.188571,179.042748 C268.733271,179.042748 266.742857,177.053662 266.742857,174.6 C266.742857,172.146338 268.733271,170.157252 271.188571,170.157252 Z M272.966857,188.372519 C275.422157,188.372519 277.412571,190.361605 277.412571,192.815267 C277.412571,195.268929 275.422157,197.258015 272.966857,197.258015 C270.511557,197.258015 268.521143,195.268929 268.521143,192.815267 C268.521143,190.361605 270.511557,188.372519 272.966857,188.372519 Z M239.624,199.479389 C242.0793,199.479389 244.069714,201.468475 244.069714,203.922137 C244.069714,206.375799 242.0793,208.364885 239.624,208.364885 C237.1687,208.364885 235.178286,206.375799 235.178286,203.922137 C235.178286,201.468475 237.1687,199.479389 239.624,199.479389 Z M244.069714,215.473282 C246.525014,215.473282 248.515429,217.462369 248.515429,219.916031 C248.515429,222.369693 246.525014,224.358779 244.069714,224.358779 C241.614414,224.358779 239.624,222.369693 239.624,219.916031 C239.624,217.462369 241.614414,215.473282 244.069714,215.473282 Z M277.412571,238.575573 C279.867872,238.575573 281.858286,240.564659 281.858286,243.018321 C281.858286,245.471983 279.867872,247.461069 277.412571,247.461069 C274.957271,247.461069 272.966857,245.471983 272.966857,243.018321 C272.966857,240.564659 274.957271,238.575573 277.412571,238.575573 Z M273.856,215.473282 C276.3113,215.473282 278.301714,217.462369 278.301714,219.916031 C278.301714,222.369693 276.3113,224.358779 273.856,224.358779 C271.4007,224.358779 269.410286,222.369693 269.410286,219.916031 C269.410286,217.462369 271.4007,215.473282 273.856,215.473282 Z M372.550857,61.3099237 C375.006157,61.3099237 376.996571,63.2990097 376.996571,65.7526718 C376.996571,68.2063338 375.006157,70.1954198 372.550857,70.1954198 C370.095557,70.1954198 368.105143,68.2063338 368.105143,65.7526718 C368.105143,63.2990097 370.095557,61.3099237 372.550857,61.3099237 Z M376.552,51.0916031 C379.0073,51.0916031 380.997714,53.0806891 380.997714,55.5343511 C380.997714,57.9880132 379.0073,59.9770992 376.552,59.9770992 C374.0967,59.9770992 372.106286,57.9880132 372.106286,55.5343511 C372.106286,53.0806891 374.0967,51.0916031 376.552,51.0916031 Z M334.317714,75.9709924 C336.773014,75.9709924 338.763429,77.9600784 338.763429,80.4137405 C338.763429,82.8674025 336.773014,84.8564885 334.317714,84.8564885 C331.862414,84.8564885 329.872,82.8674025 329.872,80.4137405 C329.872,77.9600784 331.862414,75.9709924 334.317714,75.9709924 Z M330.761143,87.0778626 C333.216443,87.0778626 335.206857,89.0669487 335.206857,91.5206107 C335.206857,93.9742727 333.216443,95.9633588 330.761143,95.9633588 C328.305843,95.9633588 326.315429,93.9742727 326.315429,91.5206107 C326.315429,89.0669487 328.305843,87.0778626 330.761143,87.0778626 Z M121.812571,105.29313 C119.357271,105.29313 117.366857,103.304044 117.366857,100.850382 C117.366857,98.3967197 119.357271,96.4076336 121.812571,96.4076336 C124.267872,96.4076336 126.258286,98.3967197 126.258286,100.850382 C126.258286,103.304044 124.267872,105.29313 121.812571,105.29313 Z M131.148571,99.0732824 C128.693271,99.0732824 126.702857,97.0841964 126.702857,94.6305344 C126.702857,92.1768723 128.693271,90.1877863 131.148571,90.1877863 C133.603872,90.1877863 135.594286,92.1768723 135.594286,94.6305344 C135.594286,97.0841964 133.603872,99.0732824 131.148571,99.0732824 Z M200.057143,136.836641 C197.601843,136.836641 195.611429,134.847555 195.611429,132.393893 C195.611429,129.940231 197.601843,127.951145 200.057143,127.951145 C202.512443,127.951145 204.502857,129.940231 204.502857,132.393893 C204.502857,134.847555 202.512443,136.836641 200.057143,136.836641 Z M170.270857,133.282443 C167.815557,133.282443 165.825143,131.293357 165.825143,128.839695 C165.825143,126.386033 167.815557,124.396947 170.270857,124.396947 C172.726157,124.396947 174.716571,126.386033 174.716571,128.839695 C174.716571,130.017985 174.248185,131.148015 173.414452,131.981192 C172.580719,132.814369 171.449934,133.282443 170.270857,133.282443 Z M149.376,95.0748092 C146.9207,95.0748092 144.930286,93.0857231 144.930286,90.6320611 C144.930286,88.1783991 146.9207,86.189313 149.376,86.189313 C151.8313,86.189313 153.821714,88.1783991 153.821714,90.6320611 C153.821714,93.0857231 151.8313,95.0748092 149.376,95.0748092 Z M160.045714,137.725191 C157.590414,137.725191 155.6,135.736105 155.6,133.282443 C155.6,130.828781 157.590414,128.839695 160.045714,128.839695 C162.501014,128.839695 164.491429,130.828781 164.491429,133.282443 C164.491429,135.736105 162.501014,137.725191 160.045714,137.725191 Z M147.597714,124.841221 C145.142414,124.841221 143.152,122.852135 143.152,120.398473 C143.152,117.944811 145.142414,115.955725 147.597714,115.955725 C150.053014,115.955725 152.043429,117.944811 152.043429,120.398473 C152.043429,122.852135 150.053014,124.841221 147.597714,124.841221 Z M147.153143,161.716031 C144.697843,161.716031 142.707429,159.726944 142.707429,157.273282 C142.707429,154.81962 144.697843,152.830534 147.153143,152.830534 C149.608443,152.830534 151.598857,154.81962 151.598857,157.273282 C151.598857,159.726944 149.608443,161.716031 147.153143,161.716031 Z M156.489143,167.491603 C154.033843,167.491603 152.043429,165.502517 152.043429,163.048855 C152.043429,160.595193 154.033843,158.606107 156.489143,158.606107 C158.944443,158.606107 160.934857,160.595193 160.934857,163.048855 C160.934857,165.502517 158.944443,167.491603 156.489143,167.491603 Z M213.838857,188.816794 C211.383557,188.816794 209.393143,186.827708 209.393143,184.374046 C209.393143,181.920384 211.383557,179.931298 213.838857,179.931298 C216.294157,179.931298 218.284571,181.920384 218.284571,184.374046 C218.284571,186.827708 216.294157,188.816794 213.838857,188.816794 Z M44.4571429,142.167939 C42.0018427,142.167939 40.0114286,140.178853 40.0114286,137.725191 C40.0114286,135.271529 42.0018427,133.282443 44.4571429,133.282443 C46.9124431,133.282443 48.9028571,135.271529 48.9028571,137.725191 C48.9028571,140.178853 46.9124431,142.167939 44.4571429,142.167939 Z M368.994286,147.054962 C371.449586,147.054962 373.44,149.044048 373.44,151.49771 C373.44,153.951372 371.449586,155.940458 368.994286,155.940458 C366.538986,155.940458 364.548571,153.951372 364.548571,151.49771 C364.548571,149.044048 366.538986,147.054962 368.994286,147.054962 Z M374.773714,203.477863 C377.229014,203.477863 379.219429,205.466949 379.219429,207.920611 C379.219429,210.374273 377.229014,212.363359 374.773714,212.363359 C372.318414,212.363359 370.328,210.374273 370.328,207.920611 C370.328,205.466949 372.318414,203.477863 374.773714,203.477863 Z M394.779429,281.225954 C397.234729,281.225954 399.225143,283.21504 399.225143,285.668702 C399.225143,288.122364 397.234729,290.11145 394.779429,290.11145 C392.324128,290.11145 390.333714,288.122364 390.333714,285.668702 C390.333714,283.21504 392.324128,281.225954 394.779429,281.225954 Z M380.108571,282.114504 C382.563872,282.114504 384.554286,284.10359 384.554286,286.557252 C384.554286,289.010914 382.563872,291 380.108571,291 C377.653271,291 375.662857,289.010914 375.662857,286.557252 C375.662857,284.10359 377.653271,282.114504 380.108571,282.114504 Z M346.765714,181.708397 C349.221014,181.708397 351.211429,183.697483 351.211429,186.151145 C351.211429,188.604807 349.221014,190.593893 346.765714,190.593893 C344.310414,190.593893 342.32,188.604807 342.32,186.151145 C342.32,183.697483 344.310414,181.708397 346.765714,181.708397 Z M335.651429,179.931298 C338.106729,179.931298 340.097143,181.920384 340.097143,184.374046 C340.097143,186.827708 338.106729,188.816794 335.651429,188.816794 C333.196128,188.816794 331.205714,186.827708 331.205714,184.374046 C331.205714,181.920384 333.196128,179.931298 335.651429,179.931298 Z M357.88,177.709924 C360.3353,177.709924 362.325714,179.69901 362.325714,182.152672 C362.325714,184.606334 360.3353,186.59542 357.88,186.59542 C355.4247,186.59542 353.434286,184.606334 353.434286,182.152672 C353.434286,179.69901 355.4247,177.709924 357.88,177.709924 Z M310.755429,257.679389 C313.210729,257.679389 315.201143,259.668475 315.201143,262.122137 C315.201143,264.575799 313.210729,266.564885 310.755429,266.564885 C308.300128,266.564885 306.309714,264.575799 306.309714,262.122137 C306.309714,259.668475 308.300128,257.679389 310.755429,257.679389 Z M383.665143,215.473282 C386.120443,215.473282 388.110857,217.462369 388.110857,219.916031 C388.110857,222.369693 386.120443,224.358779 383.665143,224.358779 C381.209843,224.358779 379.219429,222.369693 379.219429,219.916031 C379.219429,217.462369 381.209843,215.473282 383.665143,215.473282 Z M394.334857,245.239695 C396.790157,245.239695 398.780571,247.228781 398.780571,249.682443 C398.780571,252.136105 396.790157,254.125191 394.334857,254.125191 C391.879557,254.125191 389.889143,252.136105 389.889143,249.682443 C389.889143,247.228781 391.879557,245.239695 394.334857,245.239695 Z M384.109714,249.682443 C386.565014,249.682443 388.555429,251.671529 388.555429,254.125191 C388.555429,256.578853 386.565014,258.567939 384.109714,258.567939 C381.654414,258.567939 379.664,256.578853 379.664,254.125191 C379.664,251.671529 381.654414,249.682443 384.109714,249.682443 Z M347.654857,103.960305 C350.110157,103.960305 352.100571,105.949391 352.100571,108.403053 C352.100571,110.856715 350.110157,112.845802 347.654857,112.845802 C345.199557,112.845802 343.209143,110.856715 343.209143,108.403053 C343.209143,105.949391 345.199557,103.960305 347.654857,103.960305 Z M12.448,149.276336 C9.9926998,149.276336 8.00228571,147.28725 8.00228571,144.833588 C8.00228571,142.379926 9.9926998,140.39084 12.448,140.39084 C14.9033002,140.39084 16.8937143,142.379926 16.8937143,144.833588 C16.8937143,147.28725 14.9033002,149.276336 12.448,149.276336 Z M10.2251429,172.822901 C7.76984266,172.822901 5.77942857,170.833815 5.77942857,168.380153 C5.77942857,165.926491 7.76984266,163.937405 10.2251429,163.937405 C12.6804431,163.937405 14.6708571,165.926491 14.6708571,168.380153 C14.6708571,169.558443 14.2024707,170.688473 13.3687376,171.52165 C12.5350044,172.354827 11.4042196,172.822901 10.2251429,172.822901 Z M40.0114286,187.039695 C37.5561284,187.039695 35.5657143,185.050609 35.5657143,182.596947 C35.5657143,180.143285 37.5561284,178.154198 40.0114286,178.154198 C42.4667288,178.154198 44.4571429,180.143285 44.4571429,182.596947 C44.4571429,185.050609 42.4667288,187.039695 40.0114286,187.039695 Z M369.883429,136.392366 C372.338729,136.392366 374.329143,138.381452 374.329143,140.835115 C374.329143,143.288777 372.338729,145.277863 369.883429,145.277863 C367.428128,145.277863 365.437714,143.288777 365.437714,140.835115 C365.437714,138.381452 367.428128,136.392366 369.883429,136.392366 Z M390.333714,162.60458 C392.789014,162.60458 394.779429,164.593666 394.779429,167.047328 C394.779429,169.50099 392.789014,171.490076 390.333714,171.490076 C387.878414,171.490076 385.888,169.50099 385.888,167.047328 C385.888,164.593666 387.878414,162.60458 390.333714,162.60458 Z M264.964571,76.859542 C267.419872,76.859542 269.410286,78.8486281 269.410286,81.3022901 C269.410286,83.7559521 267.419872,85.7450382 264.964571,85.7450382 C262.509271,85.7450382 260.518857,83.7559521 260.518857,81.3022901 C260.518857,78.8486281 262.509271,76.859542 264.964571,76.859542 Z M304.086857,49.7587786 C306.542157,49.7587786 308.532571,51.7478647 308.532571,54.2015267 C308.532571,56.6551887 306.542157,58.6442748 304.086857,58.6442748 C301.631557,58.6442748 299.641143,56.6551887 299.641143,54.2015267 C299.641143,51.7478647 301.631557,49.7587786 304.086857,49.7587786 Z M291.638857,75.9709924 C294.094157,75.9709924 296.084571,77.9600784 296.084571,80.4137405 C296.084571,82.8674025 294.094157,84.8564885 291.638857,84.8564885 C289.183557,84.8564885 287.193143,82.8674025 287.193143,80.4137405 C287.193143,77.9600784 289.183557,75.9709924 291.638857,75.9709924 Z M305.865143,88.8549618 C308.320443,88.8549618 310.310857,90.8440479 310.310857,93.2977099 C310.310857,95.7513719 308.320443,97.740458 305.865143,97.740458 C303.409843,97.740458 301.419429,95.7513719 301.419429,93.2977099 C301.419429,90.8440479 303.409843,88.8549618 305.865143,88.8549618 Z M303.197714,67.529771 C305.653014,67.529771 307.643429,69.5188571 307.643429,71.9725191 C307.643429,74.4261811 305.653014,76.4152672 303.197714,76.4152672 C300.742414,76.4152672 298.752,74.4261811 298.752,71.9725191 C298.752,69.5188571 300.742414,67.529771 303.197714,67.529771 Z M298.752,104.40458 C301.2073,104.40458 303.197714,106.393666 303.197714,108.847328 C303.197714,111.30099 301.2073,113.290076 298.752,113.290076 C296.2967,113.290076 294.306286,111.30099 294.306286,108.847328 C294.306286,106.393666 296.2967,104.40458 298.752,104.40458 Z M283.192,103.516031 C285.6473,103.516031 287.637714,105.505117 287.637714,107.958779 C287.637714,110.412441 285.6473,112.401527 283.192,112.401527 C280.7367,112.401527 278.746286,110.412441 278.746286,107.958779 C278.746286,105.505117 280.7367,103.516031 283.192,103.516031 Z M249.404571,111.068702 C251.859872,111.068702 253.850286,113.057788 253.850286,115.51145 C253.850286,117.965112 251.859872,119.954198 249.404571,119.954198 C246.949271,119.954198 244.958857,117.965112 244.958857,115.51145 C244.958857,113.057788 246.949271,111.068702 249.404571,111.068702 Z M262.297143,144.389313 C264.752443,144.389313 266.742857,146.378399 266.742857,148.832061 C266.742857,151.285723 264.752443,153.274809 262.297143,153.274809 C259.841843,153.274809 257.851429,151.285723 257.851429,148.832061 C257.851429,146.378399 259.841843,144.389313 262.297143,144.389313 Z M284.081143,64.4198473 C286.536443,64.4198473 288.526857,66.4089334 288.526857,68.8625954 C288.526857,71.3162574 286.536443,73.3053435 284.081143,73.3053435 C281.625843,73.3053435 279.635429,71.3162574 279.635429,68.8625954 C279.635429,66.4089334 281.625843,64.4198473 284.081143,64.4198473 Z M272.966857,136.392366 C275.422157,136.392366 277.412571,138.381452 277.412571,140.835115 C277.412571,143.288777 275.422157,145.277863 272.966857,145.277863 C270.511557,145.277863 268.521143,143.288777 268.521143,140.835115 C268.521143,138.381452 270.511557,136.392366 272.966857,136.392366 Z M238.290286,161.271756 C240.745586,161.271756 242.736,163.260842 242.736,165.714504 C242.736,168.168166 240.745586,170.157252 238.290286,170.157252 C235.834986,170.157252 233.844571,168.168166 233.844571,165.714504 C233.844571,163.260842 235.834986,161.271756 238.290286,161.271756 Z M306.754286,114.622901 C309.209586,114.622901 311.2,116.611987 311.2,119.065649 C311.2,121.519311 309.209586,123.508397 306.754286,123.508397 C304.298986,123.508397 302.308571,121.519311 302.308571,119.065649 C302.308571,116.611987 304.298986,114.622901 306.754286,114.622901 Z M71.576,94.1862595 C69.1206998,94.1862595 67.1302857,92.1971735 67.1302857,89.7435115 C67.1302857,87.2898494 69.1206998,85.3007634 71.576,85.3007634 C74.0313002,85.3007634 76.0217143,87.2898494 76.0217143,89.7435115 C76.0217143,92.1971735 74.0313002,94.1862595 71.576,94.1862595 Z M43.568,104.848855 C41.1126998,104.848855 39.1222857,102.859769 39.1222857,100.406107 C39.1222857,97.9524449 41.1126998,95.9633588 43.568,95.9633588 C46.0233002,95.9633588 48.0137143,97.9524449 48.0137143,100.406107 C48.0137143,102.859769 46.0233002,104.848855 43.568,104.848855 Z M65.7965714,103.516031 C63.3412712,103.516031 61.3508571,101.526944 61.3508571,99.0732824 C61.3508571,96.6196204 63.3412712,94.6305344 65.7965714,94.6305344 C68.2518716,94.6305344 70.2422857,96.6196204 70.2422857,99.0732824 C70.2422857,101.526944 68.2518716,103.516031 65.7965714,103.516031 Z M36.8994286,130.616794 C34.4441284,130.616794 32.4537143,128.627708 32.4537143,126.174046 C32.4537143,123.720384 34.4441284,121.731298 36.8994286,121.731298 C39.3547288,121.731298 41.3451429,123.720384 41.3451429,126.174046 C41.3451429,128.627708 39.3547288,130.616794 36.8994286,130.616794 Z M389,118.177099 C391.4553,118.177099 393.445714,120.166185 393.445714,122.619847 C393.445714,125.073509 391.4553,127.062595 389,127.062595 C386.5447,127.062595 384.554286,125.073509 384.554286,122.619847 C384.554286,120.166185 386.5447,118.177099 389,118.177099 Z M18.2274286,71.0839695 C14.5444783,71.0839695 11.5588571,68.1003404 11.5588571,64.4198473 C11.5588571,60.7393543 14.5444783,57.7557252 18.2274286,57.7557252 C21.9103789,57.7557252 24.896,60.7393543 24.896,64.4198473 C24.896,68.1003404 21.9103789,71.0839695 18.2274286,71.0839695 Z M21.3394286,26.2122137 C17.6564783,26.2122137 14.6708571,23.2285846 14.6708571,19.5480916 C14.6708571,15.8675986 17.6564783,12.8839695 21.3394286,12.8839695 C25.0223789,12.8839695 28.008,15.8675986 28.008,19.5480916 C28.008,23.2285846 25.0223789,26.2122137 21.3394286,26.2122137 Z M331.650286,60.8656489 C335.333236,60.8656489 338.318857,63.849278 338.318857,67.529771 C338.318857,71.210264 335.333236,74.1938931 331.650286,74.1938931 C327.967335,74.1938931 324.981714,71.210264 324.981714,67.529771 C324.981714,63.849278 327.967335,60.8656489 331.650286,60.8656489 Z M64.0182857,169.712977 C60.3353354,169.712977 57.3497143,166.729348 57.3497143,163.048855 C57.3497143,159.368362 60.3353354,156.384733 64.0182857,156.384733 C67.701236,156.384733 70.6868571,159.368362 70.6868571,163.048855 C70.6868571,166.729348 67.701236,169.712977 64.0182857,169.712977 Z M29.3417143,144.833588 C25.658764,144.833588 22.6731429,141.849959 22.6731429,138.169466 C22.6731429,134.488973 25.658764,131.505344 29.3417143,131.505344 C33.0246646,131.505344 36.0102857,134.488973 36.0102857,138.169466 C36.0102857,141.849959 33.0246646,144.833588 29.3417143,144.833588 Z M16.8937143,163.937405 C13.210764,163.937405 10.2251429,160.953775 10.2251429,157.273282 C10.2251429,153.592789 13.210764,150.60916 16.8937143,150.60916 C20.5766646,150.60916 23.5622857,153.592789 23.5622857,157.273282 C23.5622857,160.953775 20.5766646,163.937405 16.8937143,163.937405 Z M171.16,148.832061 C167.47705,148.832061 164.491429,145.848432 164.491429,142.167939 C164.491429,138.487446 167.47705,135.503817 171.16,135.503817 C174.84295,135.503817 177.828571,138.487446 177.828571,142.167939 C177.828571,145.848432 174.84295,148.832061 171.16,148.832061 Z M185.830857,138.169466 C182.147907,138.169466 179.162286,135.185837 179.162286,131.505344 C179.162286,127.82485 182.147907,124.841221 185.830857,124.841221 C189.513807,124.841221 192.499429,127.82485 192.499429,131.505344 C192.499429,135.185837 189.513807,138.169466 185.830857,138.169466 Z M209.393143,127.50687 C205.710193,127.50687 202.724571,124.523241 202.724571,120.842748 C202.724571,117.162255 205.710193,114.178626 209.393143,114.178626 C213.076093,114.178626 216.061714,117.162255 216.061714,120.842748 C216.061714,124.523241 213.076093,127.50687 209.393143,127.50687 Z M128.925714,122.619847 C125.242764,122.619847 122.257143,119.636218 122.257143,115.955725 C122.257143,112.275232 125.242764,109.291603 128.925714,109.291603 C132.608665,109.291603 135.594286,112.275232 135.594286,115.955725 C135.594286,119.636218 132.608665,122.619847 128.925714,122.619847 Z M135.594286,89.2992366 C131.911335,89.2992366 128.925714,86.3156075 128.925714,82.6351145 C128.925714,78.9546215 131.911335,75.9709924 135.594286,75.9709924 C139.277236,75.9709924 142.262857,78.9546215 142.262857,82.6351145 C142.262857,86.3156075 139.277236,89.2992366 135.594286,89.2992366 Z M108.030857,108.403053 C104.347907,108.403053 101.362286,105.419424 101.362286,101.738931 C101.362286,98.0584383 104.347907,95.0748092 108.030857,95.0748092 C111.713807,95.0748092 114.699429,98.0584383 114.699429,101.738931 C114.699429,105.419424 111.713807,108.403053 108.030857,108.403053 Z M99.1394286,66.6412214 C95.4564783,66.6412214 92.4708571,63.6575923 92.4708571,59.9770992 C92.4708571,56.2966062 95.4564783,53.3129771 99.1394286,53.3129771 C102.822379,53.3129771 105.808,56.2966062 105.808,59.9770992 C105.808,63.6575923 102.822379,66.6412214 99.1394286,66.6412214 Z M15.1154286,138.169466 C11.4324783,138.169466 8.44685714,135.185837 8.44685714,131.505344 C8.44685714,127.82485 11.4324783,124.841221 15.1154286,124.841221 C18.7983789,124.841221 21.784,127.82485 21.784,131.505344 C21.784,135.185837 18.7983789,138.169466 15.1154286,138.169466 Z M78.2445714,113.734351 C74.5616211,113.734351 71.576,110.750722 71.576,107.070229 C71.576,103.389736 74.5616211,100.406107 78.2445714,100.406107 C81.9275217,100.406107 84.9131429,103.389736 84.9131429,107.070229 C84.9131429,110.750722 81.9275217,113.734351 78.2445714,113.734351 Z M83.5794286,99.0732824 C79.8964783,99.0732824 76.9108571,96.0896533 76.9108571,92.4091603 C76.9108571,88.7286673 79.8964783,85.7450382 83.5794286,85.7450382 C87.2623789,85.7450382 90.248,88.7286673 90.248,92.4091603 C90.248,96.0896533 87.2623789,99.0732824 83.5794286,99.0732824 Z M336.540571,135.059542 C340.223522,135.059542 343.209143,138.043171 343.209143,141.723664 C343.209143,145.404157 340.223522,148.387786 336.540571,148.387786 C332.857621,148.387786 329.872,145.404157 329.872,141.723664 C329.872,138.043171 332.857621,135.059542 336.540571,135.059542 Z M276.523429,118.621374 C280.206379,118.621374 283.192,121.605003 283.192,125.285496 C283.192,128.965989 280.206379,131.949618 276.523429,131.949618 C272.840478,131.949618 269.854857,128.965989 269.854857,125.285496 C269.854857,121.605003 272.840478,118.621374 276.523429,118.621374 Z M272.966857,87.9664122 C276.649807,87.9664122 279.635429,90.9500413 279.635429,94.6305344 C279.635429,98.3110274 276.649807,101.294656 272.966857,101.294656 C269.283907,101.294656 266.298286,98.3110274 266.298286,94.6305344 C266.298286,90.9500413 269.283907,87.9664122 272.966857,87.9664122 Z M290.749714,87.5221374 C294.432665,87.5221374 297.418286,90.5057665 297.418286,94.1862595 C297.418286,97.8667526 294.432665,100.850382 290.749714,100.850382 C287.066764,100.850382 284.081143,97.8667526 284.081143,94.1862595 C284.081143,90.5057665 287.066764,87.5221374 290.749714,87.5221374 Z M236.067429,121.287023 C239.750379,121.287023 242.736,124.270652 242.736,127.951145 C242.736,131.631638 239.750379,134.615267 236.067429,134.615267 C232.384478,134.615267 229.398857,131.631638 229.398857,127.951145 C229.398857,124.270652 232.384478,121.287023 236.067429,121.287023 Z M265.409143,104.40458 C269.092093,104.40458 272.077714,107.388209 272.077714,111.068702 C272.077714,114.749195 269.092093,117.732824 265.409143,117.732824 C261.726193,117.732824 258.740571,114.749195 258.740571,111.068702 C258.740571,107.388209 261.726193,104.40458 265.409143,104.40458 Z M248.96,149.720611 C252.64295,149.720611 255.628571,152.70424 255.628571,156.384733 C255.628571,160.065226 252.64295,163.048855 248.96,163.048855 C245.27705,163.048855 242.291429,160.065226 242.291429,156.384733 C242.291429,152.70424 245.27705,149.720611 248.96,149.720611 Z M293.861714,117.732824 C297.544665,117.732824 300.530286,120.716454 300.530286,124.396947 C300.530286,128.07744 297.544665,131.061069 293.861714,131.061069 C290.178764,131.061069 287.193143,128.07744 287.193143,124.396947 C287.193143,120.716454 290.178764,117.732824 293.861714,117.732824 Z M55.1268571,98.1847328 C51.4439068,98.1847328 48.4582857,95.2011037 48.4582857,91.5206107 C48.4582857,87.8401177 51.4439068,84.8564885 55.1268571,84.8564885 C58.8098074,84.8564885 61.7954286,87.8401177 61.7954286,91.5206107 C61.7954286,95.2011037 58.8098074,98.1847328 55.1268571,98.1847328 Z M384.554286,98.1847328 C388.237236,98.1847328 391.222857,101.168362 391.222857,104.848855 C391.222857,108.529348 388.237236,111.512977 384.554286,111.512977 C380.871335,111.512977 377.885714,108.529348 377.885714,104.848855 C377.885714,101.168362 380.871335,98.1847328 384.554286,98.1847328 Z M27.5634286,56.8671756 C19.2154079,56.8671756 12.448,50.1042829 12.448,41.7618321 C12.448,33.4193812 19.2154079,26.6564885 27.5634286,26.6564885 C35.9114493,26.6564885 42.6788571,33.4193812 42.6788571,41.7618321 C42.6788571,45.7680182 41.0863433,49.6101215 38.2516506,52.4429229 C35.4169579,55.2757243 31.5722895,56.8671756 27.5634286,56.8671756 Z M338.763429,30.210687 C347.111449,30.210687 353.878857,36.9735797 353.878857,45.3160305 C353.878857,53.6584814 347.111449,60.421374 338.763429,60.421374 C330.415408,60.421374 323.648,53.6584814 323.648,45.3160305 C323.648,36.9735797 330.415408,30.210687 338.763429,30.210687 Z M364.548571,244.79542 C356.200551,244.79542 349.433143,238.032527 349.433143,229.690076 C349.433143,221.347625 356.200551,214.584733 364.548571,214.584733 C372.896592,214.584733 379.664,221.347625 379.664,229.690076 C379.664,233.696263 378.071486,237.538366 375.236793,240.371167 C372.402101,243.203969 368.557432,244.79542 364.548571,244.79542 Z M40.9005714,174.6 C32.5525507,174.6 25.7851429,167.837107 25.7851429,159.494656 C25.7851429,151.152206 32.5525507,144.389313 40.9005714,144.389313 C49.2485921,144.389313 56.016,151.152206 56.016,159.494656 C56.016,167.837107 49.2485921,174.6 40.9005714,174.6 Z M344.987429,149.276336 C353.335449,149.276336 360.102857,156.039229 360.102857,164.381679 C360.102857,172.72413 353.335449,179.487023 344.987429,179.487023 C336.639408,179.487023 329.872,172.72413 329.872,164.381679 C329.872,156.039229 336.639408,149.276336 344.987429,149.276336 Z M56.4605714,133.726718 C48.1125507,133.726718 41.3451429,126.963825 41.3451429,118.621374 C41.3451429,110.278923 48.1125507,103.516031 56.4605714,103.516031 C64.8085921,103.516031 71.576,110.278923 71.576,118.621374 C71.576,122.62756 69.9834862,126.469663 67.1487935,129.302465 C64.3141007,132.135266 60.4694323,133.726718 56.4605714,133.726718 Z M366.771429,104.848855 C375.119449,104.848855 381.886857,111.611748 381.886857,119.954198 C381.886857,128.296649 375.119449,135.059542 366.771429,135.059542 C358.423408,135.059542 351.656,128.296649 351.656,119.954198 C351.656,111.611748 358.423408,104.848855 366.771429,104.848855 Z M44.9017143,208.364885 C39.6113143,208.364885 35.1211429,203.87771 35.1211429,198.146565 C35.1929338,192.778506 39.5300717,188.444262 44.9017143,188.372519 C50.6366857,188.372519 55.1268571,192.859695 55.1268571,198.146565 C55.1630858,200.867569 54.0974347,203.487728 52.1719389,205.411939 C50.2464432,207.33615 47.6245355,208.40109 44.9017143,208.364885 Z M30.6754286,210.141985 C28.2201284,210.141985 26.2297143,208.152899 26.2297143,205.699237 C26.2297143,203.245575 28.2201284,201.256489 30.6754286,201.256489 C33.1307288,201.256489 35.1211429,203.245575 35.1211429,205.699237 C35.1211429,208.152899 33.1307288,210.141985 30.6754286,210.141985 Z M18.672,233.244275 C16.2166998,233.244275 14.2262857,231.255189 14.2262857,228.801527 C14.2262857,226.347865 16.2166998,224.358779 18.672,224.358779 C21.1273002,224.358779 23.1177143,226.347865 23.1177143,228.801527 C23.1177143,231.255189 21.1273002,233.244275 18.672,233.244275 Z M7.11314286,232.355725 C4.65784266,232.355725 2.66742857,230.366639 2.66742857,227.912977 C2.66742857,225.459315 4.65784266,223.470229 7.11314286,223.470229 C9.56844306,223.470229 11.5588571,225.459315 11.5588571,227.912977 C11.5588571,230.366639 9.56844306,232.355725 7.11314286,232.355725 Z M25.7851429,200.812214 C23.3298427,200.812214 21.3394286,198.823128 21.3394286,196.369466 C21.3394286,193.915804 23.3298427,191.926718 25.7851429,191.926718 C28.2404431,191.926718 30.2308571,193.915804 30.2308571,196.369466 C30.2308571,198.823128 28.2404431,200.812214 25.7851429,200.812214 Z M64.4628571,201.256489 C62.0075569,201.256489 60.0171429,199.267402 60.0171429,196.81374 C60.0171429,194.360078 62.0075569,192.370992 64.4628571,192.370992 C66.9181573,192.370992 68.9085714,194.360078 68.9085714,196.81374 C68.9085714,199.267402 66.9181573,201.256489 64.4628571,201.256489 Z M63.1291429,230.578626 C60.6738427,230.578626 58.6834286,228.58954 58.6834286,226.135878 C58.6834286,223.682216 60.6738427,221.69313 63.1291429,221.69313 C65.5844431,221.69313 67.5748571,223.682216 67.5748571,226.135878 C67.5748571,228.58954 65.5844431,230.578626 63.1291429,230.578626 Z M44.9017143,250.570992 C42.4464141,250.570992 40.456,248.581906 40.456,246.128244 C40.456,243.674582 42.4464141,241.685496 44.9017143,241.685496 C47.3570145,241.685496 49.3474286,243.674582 49.3474286,246.128244 C49.3474286,248.581906 47.3570145,250.570992 44.9017143,250.570992 Z M36.0102857,261.677863 C33.5549855,261.677863 31.5645714,259.688777 31.5645714,257.235115 C31.5645714,254.781452 33.5549855,252.792366 36.0102857,252.792366 C38.4655859,252.792366 40.456,254.781452 40.456,257.235115 C40.456,259.688777 38.4655859,261.677863 36.0102857,261.677863 Z M27.5634286,290.11145 C25.1081284,290.11145 23.1177143,288.122364 23.1177143,285.668702 C23.1177143,283.21504 25.1081284,281.225954 27.5634286,281.225954 C30.0187288,281.225954 32.0091429,283.21504 32.0091429,285.668702 C32.0091429,288.122364 30.0187288,290.11145 27.5634286,290.11145 Z M62.24,261.677863 C59.7846998,261.677863 57.7942857,259.688777 57.7942857,257.235115 C57.7942857,254.781452 59.7846998,252.792366 62.24,252.792366 C64.6953002,252.792366 66.6857143,254.781452 66.6857143,257.235115 C66.6857143,259.688777 64.6953002,261.677863 62.24,261.677863 Z M52.0148571,257.235115 C49.5595569,257.235115 47.5691429,255.246028 47.5691429,252.792366 C47.5691429,250.338704 49.5595569,248.349618 52.0148571,248.349618 C54.4701573,248.349618 56.4605714,250.338704 56.4605714,252.792366 C56.4605714,255.246028 54.4701573,257.235115 52.0148571,257.235115 Z M59.5725714,217.694656 C56.8753861,217.694656 54.4437829,216.070995 53.4116148,213.580783 C52.3794466,211.090572 52.9499813,208.224214 54.8571794,206.318288 C56.7643774,204.412363 59.6326489,203.842209 62.1245232,204.873688 C64.6163976,205.905168 66.2411429,208.335149 66.2411429,211.030534 C66.2411429,214.711027 63.2555217,217.694656 59.5725714,217.694656 Z M11.1142857,200.812214 C7.43133541,200.812214 4.44571429,197.828585 4.44571429,194.148092 C4.44571429,190.467599 7.43133541,187.483969 11.1142857,187.483969 C14.797236,187.483969 17.7828571,190.467599 17.7828571,194.148092 C17.7828571,197.828585 14.797236,200.812214 11.1142857,200.812214 Z M60.4617143,247.461069 C56.778764,247.461069 53.7931429,244.47744 53.7931429,240.796947 C53.7931429,237.116454 56.778764,234.132824 60.4617143,234.132824 C64.1446646,234.132824 67.1302857,237.116454 67.1302857,240.796947 C67.1302857,244.47744 64.1446646,247.461069 60.4617143,247.461069 Z M26.6742857,278.116031 C22.9913354,278.116031 20.0057143,275.132401 20.0057143,271.451908 C20.0057143,267.771415 22.9913354,264.787786 26.6742857,264.787786 C30.357236,264.787786 33.3428571,267.771415 33.3428571,271.451908 C33.3428571,275.132401 30.357236,278.116031 26.6742857,278.116031 Z M40.456,240.352672 C32.1079793,240.352672 25.3405714,233.589779 25.3405714,225.247328 C25.3405714,216.904877 32.1079793,210.141985 40.456,210.141985 C48.8040207,210.141985 55.5714286,216.904877 55.5714286,225.247328 C55.5714286,233.589779 48.8040207,240.352672 40.456,240.352672 Z M16.0045714,265.232061 C7.65655074,265.232061 0.889142857,258.469168 0.889142857,250.126718 C0.889142857,241.784267 7.65655074,235.021374 16.0045714,235.021374 C24.3525921,235.021374 31.12,241.784267 31.12,250.126718 C31.12,258.469168 24.3525921,265.232061 16.0045714,265.232061 Z M49.792,291 C41.4439793,291 34.6765714,284.237107 34.6765714,275.894656 C34.6765714,267.552206 41.4439793,260.789313 49.792,260.789313 C58.1400207,260.789313 64.9074286,267.552206 64.9074286,275.894656 C64.9074286,284.237107 58.1400207,291 49.792,291 Z M319.646857,257.235115 C314.356457,257.235115 309.866286,252.747939 309.866286,247.016794 C309.938077,241.648735 314.275215,237.314491 319.646857,237.242748 C325.381829,237.242748 329.872,241.729924 329.872,247.016794 C329.908229,249.737798 328.842578,252.357957 326.917082,254.282168 C324.991586,256.206379 322.369678,257.271319 319.646857,257.235115 Z M389.444571,279.448855 C384.154171,279.448855 379.664,274.961679 379.664,269.230534 C379.735791,263.862476 384.072929,259.528232 389.444571,259.456489 C395.179543,259.456489 399.669714,263.943664 399.669714,269.230534 C399.705943,271.951539 398.640292,274.571697 396.714796,276.495908 C394.7893,278.420119 392.167393,279.485059 389.444571,279.448855 Z M296.084571,261.677863 C290.794171,261.677863 286.304,257.190687 286.304,251.459542 C286.375791,246.091483 290.712929,241.757239 296.084571,241.685496 C301.819543,241.685496 306.309714,246.172672 306.309714,251.459542 C306.345943,254.180546 305.280292,256.800705 303.354796,258.724916 C301.4293,260.649127 298.807393,261.714067 296.084571,261.677863 Z M393.001143,230.134351 C390.545843,230.134351 388.555429,228.145265 388.555429,225.691603 C388.555429,223.237941 390.545843,221.248855 393.001143,221.248855 C395.456443,221.248855 397.446857,223.237941 397.446857,225.691603 C397.446857,228.145265 395.456443,230.134351 393.001143,230.134351 Z M324.537143,213.251908 C322.081843,213.251908 320.091429,211.262822 320.091429,208.80916 C320.091429,206.355498 322.081843,204.366412 324.537143,204.366412 C326.992443,204.366412 328.982857,206.355498 328.982857,208.80916 C328.982857,211.262822 326.992443,213.251908 324.537143,213.251908 Z M303.197714,224.803053 C300.742414,224.803053 298.752,222.813967 298.752,220.360305 C298.752,217.906643 300.742414,215.917557 303.197714,215.917557 C305.653014,215.917557 307.643429,217.906643 307.643429,220.360305 C307.643429,222.813967 305.653014,224.803053 303.197714,224.803053 Z M315.201143,224.803053 C312.745843,224.803053 310.755429,222.813967 310.755429,220.360305 C310.755429,217.906643 312.745843,215.917557 315.201143,215.917557 C317.656443,215.917557 319.646857,217.906643 319.646857,220.360305 C319.646857,222.813967 317.656443,224.803053 315.201143,224.803053 Z M343.209143,234.577099 C340.753843,234.577099 338.763429,232.588013 338.763429,230.134351 C338.763429,227.680689 340.753843,225.691603 343.209143,225.691603 C345.664443,225.691603 347.654857,227.680689 347.654857,230.134351 C347.654857,232.588013 345.664443,234.577099 343.209143,234.577099 Z M354.323429,258.567939 C350.640478,258.567939 347.654857,255.58431 347.654857,251.903817 C347.654857,248.223324 350.640478,245.239695 354.323429,245.239695 C358.006379,245.239695 360.992,248.223324 360.992,251.903817 C360.992,255.58431 358.006379,258.567939 354.323429,258.567939 Z M308.977143,239.464122 C305.294193,239.464122 302.308571,236.480493 302.308571,232.8 C302.308571,229.119507 305.294193,226.135878 308.977143,226.135878 C312.660093,226.135878 315.645714,229.119507 315.645714,232.8 C315.645714,236.480493 312.660093,239.464122 308.977143,239.464122 Z M326.76,234.577099 C323.07705,234.577099 320.091429,231.59347 320.091429,227.912977 C320.091429,224.232484 323.07705,221.248855 326.76,221.248855 C330.44295,221.248855 333.428571,224.232484 333.428571,227.912977 C333.428571,231.59347 330.44295,234.577099 326.76,234.577099 Z M370.772571,260.789313 C367.089621,260.789313 364.104,257.805684 364.104,254.125191 C364.104,250.444698 367.089621,247.461069 370.772571,247.461069 C374.455522,247.461069 377.441143,250.444698 377.441143,254.125191 C377.441143,257.805684 374.455522,260.789313 370.772571,260.789313 Z M337.429714,248.349618 C333.746764,248.349618 330.761143,245.365989 330.761143,241.685496 C330.761143,238.005003 333.746764,235.021374 337.429714,235.021374 C341.112665,235.021374 344.098286,238.005003 344.098286,241.685496 C344.098286,245.365989 341.112665,248.349618 337.429714,248.349618 Z M321.425143,276.338931 C317.742193,276.338931 314.756571,273.355302 314.756571,269.674809 C314.756571,265.994316 317.742193,263.010687 321.425143,263.010687 C325.108093,263.010687 328.093714,265.994316 328.093714,269.674809 C328.093714,273.355302 325.108093,276.338931 321.425143,276.338931 Z M336.540571,287.001527 C332.857621,287.001527 329.872,284.017898 329.872,280.337405 C329.872,276.656912 332.857621,273.673282 336.540571,273.673282 C340.223522,273.673282 343.209143,276.656912 343.209143,280.337405 C343.209143,284.017898 340.223522,287.001527 336.540571,287.001527 Z M340.097143,203.477863 C336.414193,203.477863 333.428571,200.494233 333.428571,196.81374 C333.428571,193.133247 336.414193,190.149618 340.097143,190.149618 C343.780093,190.149618 346.765714,193.133247 346.765714,196.81374 C346.765714,200.494233 343.780093,203.477863 340.097143,203.477863 Z M71.1314286,51.5358779 C65.8410286,51.5358779 61.3508571,47.0487023 61.3508571,41.3175573 C61.4226481,35.9494986 65.7597859,31.6152545 71.1314286,31.5435115 C76.8664,31.5435115 81.3565714,36.030687 81.3565714,41.3175573 C81.3928,44.0385618 80.3271489,46.6587201 78.4016532,48.5829312 C76.4761575,50.5071422 73.8542498,51.5720823 71.1314286,51.5358779 Z M56.9051429,53.3129771 C54.4498427,53.3129771 52.4594286,51.323891 52.4594286,48.870229 C52.4594286,46.416567 54.4498427,44.4274809 56.9051429,44.4274809 C59.3604431,44.4274809 61.3508571,46.416567 61.3508571,48.870229 C61.3508571,51.323891 59.3604431,53.3129771 56.9051429,53.3129771 Z M46.2354286,25.3236641 C43.7801284,25.3236641 41.7897143,23.334578 41.7897143,20.880916 C41.7897143,18.427254 43.7801284,16.4381679 46.2354286,16.4381679 C48.6907288,16.4381679 50.6811429,18.427254 50.6811429,20.880916 C50.6811429,23.334578 48.6907288,25.3236641 46.2354286,25.3236641 Z M30.6754286,14.6610687 C28.2201284,14.6610687 26.2297143,12.6719826 26.2297143,10.2183206 C26.2297143,7.76465859 28.2201284,5.77557252 30.6754286,5.77557252 C33.1307288,5.77557252 35.1211429,7.76465859 35.1211429,10.2183206 C35.1211429,12.6719826 33.1307288,14.6610687 30.6754286,14.6610687 Z M85.8022857,60.8656489 C82.1193354,60.8656489 79.1337143,57.8820197 79.1337143,54.2015267 C79.1337143,50.5210337 82.1193354,47.5374046 85.8022857,47.5374046 C89.485236,47.5374046 92.4708571,50.5210337 92.4708571,54.2015267 C92.4708571,57.8820197 89.485236,60.8656489 85.8022857,60.8656489 Z M88.4697143,82.1908397 C84.786764,82.1908397 81.8011429,79.2072106 81.8011429,75.5267176 C81.8011429,71.8462245 84.786764,68.8625954 88.4697143,68.8625954 C92.1526646,68.8625954 95.1382857,71.8462245 95.1382857,75.5267176 C95.1382857,79.2072106 92.1526646,82.1908397 88.4697143,82.1908397 Z M56.4605714,37.319084 C52.7776211,37.319084 49.792,34.3354549 49.792,30.6549618 C49.792,26.9744688 52.7776211,23.9908397 56.4605714,23.9908397 C60.1435217,23.9908397 63.1291429,26.9744688 63.1291429,30.6549618 C63.1291429,34.3354549 60.1435217,37.319084 56.4605714,37.319084 Z M66.6857143,83.5236641 C58.3376936,83.5236641 51.5702857,76.7607715 51.5702857,68.4183206 C51.5702857,60.0758697 58.3376936,53.3129771 66.6857143,53.3129771 C75.033735,53.3129771 81.8011429,60.0758697 81.8011429,68.4183206 C81.8011429,76.7607715 75.033735,83.5236641 66.6857143,83.5236641 Z M358.324571,36.8748092 C353.034171,36.8748092 348.544,32.3876336 348.544,26.6564885 C348.615791,21.2884299 352.952929,16.9541858 358.324571,16.8824427 C364.059543,16.8824427 368.549714,21.3696183 368.549714,26.6564885 C368.585943,29.3774931 367.520292,31.9976514 365.594796,33.9218625 C363.6693,35.8460735 361.047393,36.9110136 358.324571,36.8748092 Z M380.108571,10.2183206 C377.653271,10.2183206 375.662857,8.22923454 375.662857,5.77557252 C375.662857,3.3219105 377.653271,1.33282443 380.108571,1.33282443 C382.563872,1.33282443 384.554286,3.3219105 384.554286,5.77557252 C384.554286,6.95386257 384.085899,8.08389293 383.252166,8.91706982 C382.418433,9.75024671 381.287648,10.2183206 380.108571,10.2183206 Z M369.438857,19.1038168 C366.983557,19.1038168 364.993143,17.1147307 364.993143,14.6610687 C364.993143,12.2074067 366.983557,10.2183206 369.438857,10.2183206 C371.894157,10.2183206 373.884571,12.2074067 373.884571,14.6610687 C373.884571,15.8393588 373.416185,16.9693891 372.582452,17.802566 C371.748719,18.6357429 370.617934,19.1038168 369.438857,19.1038168 Z M380.997714,27.989313 C377.314764,27.989313 374.329143,25.0056839 374.329143,21.3251908 C374.329143,17.6446978 377.314764,14.6610687 380.997714,14.6610687 C384.680665,14.6610687 387.666286,17.6446978 387.666286,21.3251908 C387.666286,25.0056839 384.680665,27.989313 380.997714,27.989313 Z M377.885714,42.2061069 C374.202764,42.2061069 371.217143,39.2224778 371.217143,35.5419847 C371.217143,31.8614917 374.202764,28.8778626 377.885714,28.8778626 C381.568665,28.8778626 384.554286,31.8614917 384.554286,35.5419847 C384.554286,39.2224778 381.568665,42.2061069 377.885714,42.2061069 Z M385.443429,73.3053435 C381.760478,73.3053435 378.774857,70.3217144 378.774857,66.6412214 C378.774857,62.9607283 381.760478,59.9770992 385.443429,59.9770992 C389.126379,59.9770992 392.112,62.9607283 392.112,66.6412214 C392.112,70.3217144 389.126379,73.3053435 385.443429,73.3053435 Z M333.873143,111.068702 C330.190193,111.068702 327.204571,108.085073 327.204571,104.40458 C327.204571,100.724087 330.190193,97.740458 333.873143,97.740458 C337.556093,97.740458 340.541714,100.724087 340.541714,104.40458 C340.541714,106.172015 339.839135,107.867061 338.588535,109.116826 C337.337935,110.366591 335.641758,111.068702 333.873143,111.068702 Z M389.444571,215.029008 C385.761621,215.029008 382.776,212.045379 382.776,208.364885 C382.776,204.684392 385.761621,201.700763 389.444571,201.700763 C393.127522,201.700763 396.113143,204.684392 396.113143,208.364885 C396.113143,212.045379 393.127522,215.029008 389.444571,215.029008 Z M386.777143,244.351145 C383.094193,244.351145 380.108571,241.367516 380.108571,237.687023 C380.108571,234.00653 383.094193,231.022901 386.777143,231.022901 C390.460093,231.022901 393.445714,234.00653 393.445714,237.687023 C393.445714,241.367516 390.460093,244.351145 386.777143,244.351145 Z M381.886857,163.49313 C378.203907,163.49313 375.218286,160.509501 375.218286,156.829008 C375.218286,153.148515 378.203907,150.164885 381.886857,150.164885 C385.569807,150.164885 388.555429,153.148515 388.555429,156.829008 C388.555429,160.509501 385.569807,163.49313 381.886857,163.49313 Z M368.549714,171.045802 C364.866764,171.045802 361.881143,168.062172 361.881143,164.381679 C361.881143,160.701186 364.866764,157.717557 368.549714,157.717557 C372.232665,157.717557 375.218286,160.701186 375.218286,164.381679 C375.218286,168.062172 372.232665,171.045802 368.549714,171.045802 Z M296.084571,200.367939 C292.401621,200.367939 289.416,197.38431 289.416,193.703817 C289.416,190.023324 292.401621,187.039695 296.084571,187.039695 C299.767522,187.039695 302.753143,190.023324 302.753143,193.703817 C302.753143,197.38431 299.767522,200.367939 296.084571,200.367939 Z M258.740571,215.917557 C255.057621,215.917557 252.072,212.933928 252.072,209.253435 C252.072,205.572942 255.057621,202.589313 258.740571,202.589313 C262.423522,202.589313 265.409143,205.572942 265.409143,209.253435 C265.409143,212.933928 262.423522,215.917557 258.740571,215.917557 Z M286.304,218.138931 C282.62105,218.138931 279.635429,215.155302 279.635429,211.474809 C279.635429,207.794316 282.62105,204.810687 286.304,204.810687 C289.98695,204.810687 292.972571,207.794316 292.972571,211.474809 C292.972571,215.155302 289.98695,218.138931 286.304,218.138931 Z M310.755429,214.584733 C307.072478,214.584733 304.086857,211.601104 304.086857,207.920611 C304.086857,204.240118 307.072478,201.256489 310.755429,201.256489 C314.438379,201.256489 317.424,204.240118 317.424,207.920611 C317.424,209.688046 316.72142,211.383091 315.470821,212.632857 C314.220221,213.882622 312.524044,214.584733 310.755429,214.584733 Z M261.852571,237.687023 C258.169621,237.687023 255.184,234.703394 255.184,231.022901 C255.184,227.342408 258.169621,224.358779 261.852571,224.358779 C265.535522,224.358779 268.521143,227.342408 268.521143,231.022901 C268.521143,234.703394 265.535522,237.687023 261.852571,237.687023 Z M357.88,152.38626 C354.19705,152.38626 351.211429,149.40263 351.211429,145.722137 C351.211429,142.041644 354.19705,139.058015 357.88,139.058015 C361.56295,139.058015 364.548571,142.041644 364.548571,145.722137 C364.548571,149.40263 361.56295,152.38626 357.88,152.38626 Z M360.992,62.6427481 C357.30905,62.6427481 354.323429,59.659119 354.323429,55.978626 C354.323429,52.2981329 357.30905,49.3145038 360.992,49.3145038 C364.67495,49.3145038 367.660571,52.2981329 367.660571,55.978626 C367.660571,59.659119 364.67495,62.6427481 360.992,62.6427481 Z M355.212571,93.2977099 C346.864551,93.2977099 340.097143,86.5348173 340.097143,78.1923664 C340.097143,69.8499155 346.864551,63.0870229 355.212571,63.0870229 C363.560592,63.0870229 370.328,69.8499155 370.328,78.1923664 C370.328,86.5348173 363.560592,93.2977099 355.212571,93.2977099 Z M20.0057143,93.2977099 C14.7153143,93.2977099 10.2251429,88.8105344 10.2251429,83.0793893 C10.2969338,77.7113307 14.6340717,73.3770866 20.0057143,73.3053435 C25.7406857,73.3053435 30.2308571,77.7925191 30.2308571,83.0793893 C30.2670858,85.8003938 29.2014347,88.4205522 27.2759389,90.3447632 C25.3504432,92.2689743 22.7285355,93.3339144 20.0057143,93.2977099 Z M49.3474286,84.4122137 C46.8921284,84.4122137 44.9017143,82.4231277 44.9017143,79.9694656 C44.9017143,77.5158036 46.8921284,75.5267176 49.3474286,75.5267176 C51.8027288,75.5267176 53.7931429,77.5158036 53.7931429,79.9694656 C53.7931429,82.4231277 51.8027288,84.4122137 49.3474286,84.4122137 Z M35.5657143,26.6564885 C33.1104141,26.6564885 31.12,24.6674025 31.12,22.2137405 C31.12,19.7600784 33.1104141,17.7709924 35.5657143,17.7709924 C38.0210145,17.7709924 40.0114286,19.7600784 40.0114286,22.2137405 C40.0114286,24.6674025 38.0210145,26.6564885 35.5657143,26.6564885 Z M48.4582857,44.4274809 C46.0029855,44.4274809 44.0125714,42.4383948 44.0125714,39.9847328 C44.0125714,37.5310708 46.0029855,35.5419847 48.4582857,35.5419847 C50.9135859,35.5419847 52.904,37.5310708 52.904,39.9847328 C52.904,42.4383948 50.9135859,44.4274809 48.4582857,44.4274809 Z M38.6777143,92.4091603 C34.994764,92.4091603 32.0091429,89.4255312 32.0091429,85.7450382 C32.0091429,82.0645451 34.994764,79.080916 38.6777143,79.080916 C42.3606646,79.080916 45.3462857,82.0645451 45.3462857,85.7450382 C45.3462857,89.4255312 42.3606646,92.4091603 38.6777143,92.4091603 Z M24.0068571,125.285496 C15.6588365,125.285496 8.89142857,118.522604 8.89142857,110.180153 C8.89142857,101.837702 15.6588365,95.0748092 24.0068571,95.0748092 C32.3548778,95.0748092 39.1222857,101.837702 39.1222857,110.180153 C39.1222857,114.186339 37.5297719,118.028442 34.6950792,120.861244 C31.8603865,123.694045 28.0157181,125.285496 24.0068571,125.285496 Z M143.596571,115.51145 C138.306171,115.51145 133.816,111.024275 133.816,105.29313 C133.887791,99.9250711 138.224929,95.5908271 143.596571,95.519084 C149.331543,95.519084 153.821714,100.00626 153.821714,105.29313 C153.857943,108.014134 152.792292,110.634293 150.866796,112.558504 C148.9413,114.482715 146.319393,115.547655 143.596571,115.51145 Z M116.477714,115.955725 C114.022414,115.955725 112.032,113.966639 112.032,111.512977 C112.032,109.059315 114.022414,107.070229 116.477714,107.070229 C118.933014,107.070229 120.923429,109.059315 120.923429,111.512977 C120.923429,113.966639 118.933014,115.955725 116.477714,115.955725 Z M96.472,99.5175573 C94.0166998,99.5175573 92.0262857,97.5284712 92.0262857,95.0748092 C92.0262857,92.6211471 94.0166998,90.6320611 96.472,90.6320611 C98.9273002,90.6320611 100.917714,92.6211471 100.917714,95.0748092 C100.917714,97.5284712 98.9273002,99.5175573 96.472,99.5175573 Z M160.045714,124.396947 C156.362764,124.396947 153.377143,121.413317 153.377143,117.732824 C153.377143,114.052331 156.362764,111.068702 160.045714,111.068702 C163.728665,111.068702 166.714286,114.052331 166.714286,117.732824 C166.714286,121.413317 163.728665,124.396947 160.045714,124.396947 Z M162.268571,109.735878 C159.571386,109.735878 157.139783,108.112217 156.107615,105.622005 C155.075447,103.131793 155.645981,100.265435 157.553179,98.3595098 C159.460377,96.4535842 162.328649,95.8834302 164.820523,96.9149097 C167.312398,97.9463892 168.937143,100.37637 168.937143,103.071756 C168.937143,106.752249 165.951522,109.735878 162.268571,109.735878 Z M137.817143,153.274809 C129.469122,153.274809 122.701714,146.511917 122.701714,138.169466 C122.701714,129.827015 129.469122,123.064122 137.817143,123.064122 C146.165164,123.064122 152.932571,129.827015 152.932571,138.169466 C152.932571,146.511917 146.165164,153.274809 137.817143,153.274809 Z M381.442286,200.367939 C373.094265,200.367939 366.326857,193.605046 366.326857,185.262595 C366.326857,176.920145 373.094265,170.157252 381.442286,170.157252 C389.790306,170.157252 396.557714,176.920145 396.557714,185.262595 C396.557714,193.605046 389.790306,200.367939 381.442286,200.367939 Z M360.992,291 C352.643979,291 345.876571,284.237107 345.876571,275.894656 C345.876571,267.552206 352.643979,260.789313 360.992,260.789313 C369.340021,260.789313 376.107429,267.552206 376.107429,275.894656 C376.107429,284.237107 369.340021,291 360.992,291 Z M219.173714,146.610687 C213.883314,146.610687 209.393143,142.123511 209.393143,136.392366 C209.464934,131.024308 213.802072,126.690064 219.173714,126.618321 C224.908686,126.618321 229.398857,131.105496 229.398857,136.392366 C229.435086,139.113371 228.369435,141.733529 226.443939,143.65774 C224.518443,145.581951 221.896535,146.646891 219.173714,146.610687 Z M177.828571,125.285496 C172.538171,125.285496 168.048,120.798321 168.048,115.067176 C168.119791,109.699117 172.456929,105.364873 177.828571,105.29313 C183.563543,105.29313 188.053714,109.780305 188.053714,115.067176 C188.089943,117.78818 187.024292,120.408338 185.098796,122.332549 C183.1733,124.256761 180.551393,125.321701 177.828571,125.285496 Z M204.947429,147.499237 C202.492128,147.499237 200.501714,145.510151 200.501714,143.056489 C200.501714,140.602827 202.492128,138.61374 204.947429,138.61374 C207.402729,138.61374 209.393143,140.602827 209.393143,143.056489 C209.393143,145.510151 207.402729,147.499237 204.947429,147.499237 Z M195.166857,126.618321 C192.711557,126.618321 190.721143,124.629235 190.721143,122.175573 C190.721143,119.721911 192.711557,117.732824 195.166857,117.732824 C197.622157,117.732824 199.612571,119.721911 199.612571,122.175573 C199.612571,124.629235 197.622157,126.618321 195.166857,126.618321 Z M233.844571,155.940458 C230.161621,155.940458 227.176,152.956829 227.176,149.276336 C227.176,145.595843 230.161621,142.612214 233.844571,142.612214 C237.527522,142.612214 240.513143,145.595843 240.513143,149.276336 C240.513143,152.956829 237.527522,155.940458 233.844571,155.940458 Z M180.051429,183.929771 C176.368478,183.929771 173.382857,180.946142 173.382857,177.265649 C173.382857,173.585156 176.368478,170.601527 180.051429,170.601527 C183.734379,170.601527 186.72,173.585156 186.72,177.265649 C186.72,180.946142 183.734379,183.929771 180.051429,183.929771 Z M191.610286,174.155725 C187.927335,174.155725 184.941714,171.172096 184.941714,167.491603 C184.941714,163.81111 187.927335,160.827481 191.610286,160.827481 C195.293236,160.827481 198.278857,163.81111 198.278857,167.491603 C198.278857,171.172096 195.293236,174.155725 191.610286,174.155725 Z M157.822857,155.940458 C154.139907,155.940458 151.154286,152.956829 151.154286,149.276336 C151.154286,145.595843 154.139907,142.612214 157.822857,142.612214 C161.505807,142.612214 164.491429,145.595843 164.491429,149.276336 C164.491429,152.956829 161.505807,155.940458 157.822857,155.940458 Z M214.728,178.598473 C206.379979,178.598473 199.612571,171.835581 199.612571,163.49313 C199.612571,155.150679 206.379979,148.387786 214.728,148.387786 C223.076021,148.387786 229.843429,155.150679 229.843429,163.49313 C229.843429,171.835581 223.076021,178.598473 214.728,178.598473 Z" id="Shape"></path>
        </g>
    </g>
</svg>